<svg width="111" height="20" viewBox="0 0 111 20" fill="none" xmlns="http://www.w3.org/2000/svg">
<path d="M5.376 4.744H0.168V2.008H13.608V4.744H8.4V19H5.376V4.744ZM18.2933 9.088H18.3413C18.5653 8.608 18.9573 8.176 19.5173 7.792C20.0933 7.392 20.8293 7.192 21.7253 7.192C22.4933 7.192 23.1413 7.32 23.6693 7.576C24.2133 7.832 24.6533 8.168 24.9893 8.584C25.3253 9 25.5653 9.48 25.7093 10.024C25.8533 10.568 25.9253 11.136 25.9253 11.728V19H23.0453V13.168C23.0453 12.848 23.0293 12.496 22.9973 12.112C22.9653 11.712 22.8773 11.344 22.7333 11.008C22.6053 10.656 22.3973 10.368 22.1093 10.144C21.8213 9.904 21.4293 9.784 20.9333 9.784C20.4533 9.784 20.0453 9.864 19.7093 10.024C19.3893 10.184 19.1173 10.4 18.8933 10.672C18.6853 10.944 18.5333 11.256 18.4373 11.608C18.3413 11.96 18.2933 12.328 18.2933 12.712V19H15.4133V0.855999H18.2933V9.088ZM29.1945 7.48H32.0745V9.304H32.1225C32.4425 8.632 32.8985 8.112 33.4905 7.744C34.0825 7.376 34.7625 7.192 35.5305 7.192C35.7065 7.192 35.8745 7.208 36.0345 7.24C36.2105 7.272 36.3865 7.312 36.5625 7.36V10.144C36.3225 10.08 36.0825 10.032 35.8425 10C35.6185 9.952 35.3945 9.928 35.1705 9.928C34.4985 9.928 33.9545 10.056 33.5385 10.312C33.1385 10.552 32.8265 10.832 32.6025 11.152C32.3945 11.472 32.2505 11.792 32.1705 12.112C32.1065 12.432 32.0745 12.672 32.0745 12.832V19H29.1945V7.48ZM38.5706 7.48H41.4506V19H38.5706V7.48ZM38.1626 3.568C38.1626 3.104 38.3306 2.704 38.6666 2.368C39.0186 2.016 39.4586 1.84 39.9866 1.84C40.5146 1.84 40.9546 2.008 41.3066 2.344C41.6746 2.664 41.8586 3.072 41.8586 3.568C41.8586 4.064 41.6746 4.48 41.3066 4.816C40.9546 5.136 40.5146 5.296 39.9866 5.296C39.4586 5.296 39.0186 5.128 38.6666 4.792C38.3306 4.44 38.1626 4.032 38.1626 3.568ZM43.197 7.48H46.341L49.413 15.544H49.461L52.557 7.48H55.509L50.973 19H47.901L43.197 7.48ZM59.5063 14.248C59.6023 15.112 59.9383 15.784 60.5143 16.264C61.0903 16.744 61.7863 16.984 62.6023 16.984C63.3223 16.984 63.9223 16.84 64.4023 16.552C64.8983 16.248 65.3303 15.872 65.6983 15.424L67.7623 16.984C67.0903 17.816 66.3383 18.408 65.5063 18.76C64.6743 19.112 63.8023 19.288 62.8903 19.288C62.0263 19.288 61.2103 19.144 60.4423 18.856C59.6743 18.568 59.0103 18.16 58.4503 17.632C57.8903 17.104 57.4423 16.472 57.1063 15.736C56.7863 14.984 56.6263 14.152 56.6263 13.24C56.6263 12.328 56.7863 11.504 57.1063 10.768C57.4423 10.016 57.8903 9.376 58.4503 8.848C59.0103 8.32 59.6743 7.912 60.4423 7.624C61.2103 7.336 62.0263 7.192 62.8903 7.192C63.6903 7.192 64.4183 7.336 65.0743 7.624C65.7463 7.896 66.3143 8.296 66.7783 8.824C67.2583 9.352 67.6263 10.008 67.8823 10.792C68.1543 11.56 68.2903 12.448 68.2903 13.456V14.248H59.5063ZM65.4103 12.088C65.3943 11.24 65.1303 10.576 64.6183 10.096C64.1063 9.6 63.3943 9.352 62.4823 9.352C61.6183 9.352 60.9303 9.6 60.4183 10.096C59.9223 10.592 59.6183 11.256 59.5063 12.088H65.4103ZM69.6396 9.928V7.48H72.0156V4.144H74.8956V7.48H78.0636V9.928H74.8956V14.968C74.8956 15.544 74.9996 16 75.2076 16.336C75.4316 16.672 75.8636 16.84 76.5036 16.84C76.7596 16.84 77.0396 16.816 77.3436 16.768C77.6476 16.704 77.8876 16.608 78.0636 16.48V18.904C77.7596 19.048 77.3836 19.144 76.9356 19.192C76.5036 19.256 76.1196 19.288 75.7836 19.288C75.0156 19.288 74.3836 19.2 73.8876 19.024C73.4076 18.864 73.0236 18.616 72.7356 18.28C72.4636 17.928 72.2716 17.496 72.1596 16.984C72.0636 16.472 72.0156 15.88 72.0156 15.208V9.928H69.6396ZM87.5117 17.416H87.4397C87.0237 18.072 86.4957 18.552 85.8557 18.856C85.2157 19.144 84.5117 19.288 83.7437 19.288C83.2157 19.288 82.6957 19.216 82.1837 19.072C81.6877 18.928 81.2397 18.712 80.8397 18.424C80.4557 18.136 80.1437 17.776 79.9037 17.344C79.6637 16.912 79.5437 16.408 79.5437 15.832C79.5437 15.208 79.6557 14.68 79.8797 14.248C80.1037 13.8 80.3997 13.432 80.7677 13.144C81.1517 12.84 81.5917 12.6 82.0877 12.424C82.5837 12.248 83.0957 12.12 83.6237 12.04C84.1677 11.944 84.7117 11.888 85.2557 11.872C85.7997 11.84 86.3117 11.824 86.7917 11.824H87.5117V11.512C87.5117 10.792 87.2637 10.256 86.7677 9.904C86.2717 9.536 85.6397 9.352 84.8717 9.352C84.2637 9.352 83.6957 9.464 83.1677 9.688C82.6397 9.896 82.1837 10.184 81.7997 10.552L80.2877 9.04C80.9277 8.384 81.6717 7.912 82.5197 7.624C83.3837 7.336 84.2717 7.192 85.1837 7.192C85.9997 7.192 86.6877 7.288 87.2477 7.48C87.8077 7.656 88.2717 7.888 88.6397 8.176C89.0077 8.464 89.2877 8.8 89.4797 9.184C89.6877 9.552 89.8317 9.928 89.9117 10.312C90.0077 10.696 90.0637 11.072 90.0797 11.44C90.0957 11.792 90.1037 12.104 90.1037 12.376V19H87.5117V17.416ZM87.3437 13.84H86.7437C86.3437 13.84 85.8957 13.856 85.3997 13.888C84.9037 13.92 84.4317 14 83.9837 14.128C83.5517 14.24 83.1837 14.416 82.8797 14.656C82.5757 14.88 82.4237 15.2 82.4237 15.616C82.4237 15.888 82.4797 16.12 82.5917 16.312C82.7197 16.488 82.8797 16.64 83.0717 16.768C83.2637 16.896 83.4797 16.992 83.7197 17.056C83.9597 17.104 84.1997 17.128 84.4397 17.128C85.4317 17.128 86.1597 16.896 86.6237 16.432C87.1037 15.952 87.3437 15.304 87.3437 14.488V13.84ZM93.2503 0.855999H96.1303V19H93.2503V0.855999ZM99.4601 0.855999H102.34V12.256L106.78 7.48H110.476L105.532 12.712L110.788 19H106.972L102.388 13.12H102.34V19H99.4601V0.855999Z" fill="#62D0DF"/>
</svg>
