<svg width="556" height="429" viewBox="0 0 556 429" fill="none" xmlns="http://www.w3.org/2000/svg">
<path fill-rule="evenodd" clip-rule="evenodd" d="M461.207 138.296C461.639 141.985 460.941 145.703 460.246 149.352C457.544 163.534 454.842 177.715 452.141 191.897C451.461 195.466 450.467 199.487 447.285 201.24C445.273 202.348 442.838 202.257 440.548 202.077C437.579 201.843 434.545 201.487 431.878 200.162C427.545 198.009 424.737 193.497 423.626 188.788C422.514 184.079 422.895 179.152 423.554 174.358C425.314 161.554 429.39 148.429 437.684 138.292C440.39 134.984 444.64 129.298 448.926 128.065C455.651 126.131 460.506 132.302 461.207 138.296Z" fill="#3B3C3A"/>
<path fill-rule="evenodd" clip-rule="evenodd" d="M394.529 25.1486C398.937 20.6562 402.349 15.192 404.453 9.26096C403.595 8.34988 402.129 9.35095 401.322 10.307C398.54 13.5993 395.758 16.8915 392.978 20.1827C395.523 16.2425 398.092 12.254 399.636 7.82461C399.143 7.22172 398.169 7.23409 397.504 7.63789C396.839 8.04394 396.411 8.73456 396.007 9.39931C393.725 13.1584 391.444 16.9163 389.16 20.6742C390.332 16.364 391.504 12.0527 392.675 7.74137C391.196 7.27908 390.007 8.97752 389.403 10.4049C387.927 13.9018 386.597 17.4607 385.42 21.0701C385.648 19.4043 385.578 17.698 385.214 16.0558C385.079 15.4439 384.806 14.7421 384.197 14.5947C383.26 14.3653 382.685 15.5789 382.495 16.5249C382.286 17.5732 382.075 18.6215 381.866 19.6698C380.846 24.7606 380.348 35.6193 388.328 35.3842C392.5 35.2605 403.374 25.8809 404.58 22.3861C401.238 20.7293 397.261 23.2781 394.529 25.1486Z" fill="#FED0EF"/>
<path fill-rule="evenodd" clip-rule="evenodd" d="M516.038 228.643C520.716 232.855 524.462 238.096 526.929 243.885C526.13 244.849 524.605 243.94 523.738 243.035C520.759 239.923 517.778 236.81 514.799 233.696C517.582 237.471 520.393 241.293 522.21 245.618C521.755 246.25 520.782 246.3 520.094 245.935C519.406 245.573 518.936 244.909 518.49 244.27C515.98 240.661 513.469 237.051 510.959 233.442C512.395 237.672 513.831 241.903 515.27 246.132C513.821 246.685 512.529 245.064 511.838 243.677C510.146 240.279 508.599 236.809 507.202 233.28C507.531 234.928 507.567 236.635 507.306 238.296C507.209 238.915 506.981 239.633 506.381 239.818C505.461 240.105 504.812 238.93 504.563 237.997C504.289 236.965 504.014 235.931 503.74 234.898C502.406 229.88 501.235 219.073 509.215 218.813C513.386 218.678 524.822 227.365 526.242 230.777C523.01 232.638 518.882 230.341 516.038 228.643Z" fill="#FED0EF"/>
<path fill-rule="evenodd" clip-rule="evenodd" d="M385.615 187.317C377.371 213.49 376.151 241.279 374.994 268.695C374.661 276.578 374.328 284.477 374.762 292.355C375.239 301.024 376.641 309.609 378.041 318.178C379.133 324.854 380.224 331.532 381.314 338.208C381.61 340.016 381.929 341.886 382.957 343.401C384.785 346.096 388.487 346.985 391.689 346.391C394.892 345.796 397.723 344.004 400.467 342.248C399.646 342.769 397.944 315.983 397.714 302.452C397.606 296.081 396.326 289.791 395.82 283.441C395.245 276.239 395.668 268.991 396.354 261.799C397.204 252.875 398.461 243.99 400.117 235.181C399.706 246.599 401.233 258.087 404.612 269.003C405.89 273.131 407.604 277.414 411.091 279.965C418.043 285.052 427.727 280.872 435.22 276.626C445.376 270.871 455.724 264.965 463.507 256.266C460.816 252.155 458.126 248.044 455.436 243.934C450.303 248.246 444.204 251.399 437.718 253.092C436.637 253.374 435.46 253.61 434.429 253.182C432.541 252.397 432.149 249.94 432.081 247.896C431.537 231.325 434.261 214.651 440.05 199.112C425.248 197.402 410.34 196.59 395.439 196.684C388.772 196.725 387.418 189.857 386.023 196.376" fill="#058C2E"/>
<path fill-rule="evenodd" clip-rule="evenodd" d="M394.206 96.0811C386.792 85.1301 382.889 71.4414 385.317 58.4411C386.684 51.1288 389.953 44.307 393.672 37.8653C394.431 36.5527 395.231 34.9971 394.651 33.5967C394.266 32.6688 393.364 32.0771 392.505 31.5575C390.107 30.1054 387.642 28.7624 385.124 27.533C383.728 26.8514 382.164 26.19 380.664 26.5972C379.385 26.9459 378.439 28.0009 377.601 29.029C360.295 50.2571 361.057 78.6873 373.998 102.825C381.056 115.992 391.567 125.958 403.4 135.075C394.156 154.476 385.093 179.456 383.03 200.847C401.288 207.425 420.049 211.661 438.043 204.392C439.071 203.977 440.147 203.495 440.771 202.58C441.421 201.622 441.449 200.388 441.441 199.231C441.29 180.157 439.397 155.235 448.065 138.243C448.94 136.53 449.957 134.562 449.218 132.786C448.821 131.833 447.982 131.146 447.156 130.529C438.18 123.822 427.362 124.176 418.362 118.676C408.979 112.941 400.381 105.202 394.206 96.0811Z" fill="#EDEDED"/>
<path fill-rule="evenodd" clip-rule="evenodd" d="M417.194 108.673C420.826 109.62 425.063 111.29 425.763 114.977C426.312 117.874 424.396 120.34 421.995 122.305C420.546 124.069 419.262 126.875 422.966 129.128C428.734 132.635 437.471 128.698 440.936 126.726C441.148 123.798 442.557 120.942 444.463 118.654C446.93 115.693 450.15 113.479 453.206 111.129C456.131 108.88 458.936 106.476 461.606 103.93C464.111 101.541 466.542 98.9615 467.976 95.8098C469.408 92.6593 469.705 88.8136 467.98 85.8127C466.761 83.6924 464.692 82.21 462.609 80.9277C457.06 77.5117 450.786 74.9967 444.271 74.8448C438.232 74.7042 431.981 76.8188 427.859 81.1808C420.018 86.9791 413.319 94.3217 408.299 102.683C409.309 106.3 413.562 107.725 417.194 108.673Z" fill="#FED0EF"/>
<path fill-rule="evenodd" clip-rule="evenodd" d="M417.967 87.9796C416.723 88.5937 415.407 89.4204 415.047 90.76C415.347 91.409 416.238 91.4484 416.948 91.3899C418.544 91.2594 420.141 91.129 421.735 90.9974C421.464 91.2741 421.187 91.5598 421.044 91.9197C420.901 92.2796 420.926 92.7352 421.207 93.0006C421.652 93.4202 422.379 93.1435 422.891 92.8072C424.325 91.8612 430.056 86.6512 427.859 85.2992C425.667 83.9494 419.916 87.0167 417.967 87.9796Z" fill="#FF8BBB"/>
<path fill-rule="evenodd" clip-rule="evenodd" d="M463.659 76.7898C457.447 70.8892 451.236 64.9908 445.024 59.0912C443.776 61.856 444.853 65.4609 447.413 67.0885C444.452 65.8389 441.492 64.5892 438.531 63.3396C440.179 66.0942 442.737 68.2965 445.706 69.5192C442.799 68.8443 439.89 68.1683 436.982 67.4934C436.542 67.3911 436.042 67.2988 435.665 67.5508C434.833 68.1076 435.555 69.3898 436.304 70.0557C444.142 77.0238 452.931 82.9188 462.351 87.5259C455.35 90.474 448.95 94.8393 443.651 100.283C445.473 101.301 447.689 100.219 449.595 99.3666C451.498 98.514 454.155 98.0888 455.311 99.8255C455.734 100.46 455.834 101.279 455.673 102.024C454.98 105.22 450.77 105.731 447.753 106.996C441.996 109.41 439.459 117.405 442.774 122.696C448.876 111.05 466.562 110.507 474.04 99.6928C478.864 92.7146 468.608 81.4903 463.659 76.7898Z" fill="#37474F"/>
<path fill-rule="evenodd" clip-rule="evenodd" d="M377.167 363.506C376.801 364.44 376.534 365.737 377.283 366.238C377.846 366.615 378.589 366.229 379.186 365.849C382.33 363.843 385.494 361.823 388.286 359.226C391.08 356.628 393.51 353.388 394.746 349.603C395.5 349.503 395.991 350.845 396.707 350.528C396.936 350.428 397.086 350.177 397.221 349.942C398.451 347.778 399.684 345.614 400.916 343.45C399.892 342.143 398.714 340.99 397.42 340.025C396.818 339.576 396.152 339.155 395.412 339.164C394.756 339.172 394.129 339.516 393.554 339.903C391.625 341.201 390.674 343.244 389.009 344.755C387.52 346.105 386.174 346.386 384.847 348.097C381.546 352.351 379.16 358.431 377.167 363.506Z" fill="black"/>
<path fill-rule="evenodd" clip-rule="evenodd" d="M473.006 271.283C473.777 271.924 474.925 272.587 475.636 272.033C476.172 271.617 476.039 270.79 475.865 270.104C474.952 266.489 474.029 262.85 472.441 259.383C470.854 255.914 468.545 252.588 465.34 250.223C465.482 249.475 466.909 249.432 466.834 248.654C466.811 248.404 466.62 248.183 466.439 247.982C464.772 246.133 463.107 244.281 461.44 242.432C459.877 242.993 458.412 243.747 457.088 244.673C456.473 245.102 455.864 245.603 455.64 246.308C455.441 246.932 455.569 247.636 455.756 248.305C456.383 250.543 458.021 252.087 458.932 254.146C459.746 255.981 459.589 257.348 460.796 259.148C463.796 263.617 468.816 267.795 473.006 271.283Z" fill="black"/>
<path fill-rule="evenodd" clip-rule="evenodd" d="M482.16 198.642C487.216 205.121 492.817 211.748 496.098 219.283C497.198 221.808 500.356 221.979 501.92 224.247C503.484 226.513 506.011 228.366 508.76 228.202C511.625 228.032 513.89 225.811 515.867 223.732C516.55 223.011 517.256 222.255 517.545 221.306C517.924 220.063 517.523 218.729 517.077 217.508C514.877 211.482 511.556 205.934 508.081 200.541C491.277 174.447 470.409 150.977 446.461 131.236C444.999 130.032 439.873 136.071 439.264 137.101C437.341 140.362 437.261 143.733 437.906 147.365C438.954 153.255 440.331 159.801 444.847 163.399C458.34 174.149 470.25 183.381 482.16 198.642Z" fill="#EDEDED"/>
<path fill-rule="evenodd" clip-rule="evenodd" d="M454.014 124.523C453.188 122.927 450.87 122.996 449.178 123.6C445.821 124.801 441.665 128.353 440 132.267C436.217 138.492 436.028 148.292 436.754 154.123C437.992 164.078 442.087 173.419 446.135 182.597C447.046 183.27 448.444 182.592 448.911 181.56C449.377 180.528 449.189 179.331 448.969 178.218C448.056 173.575 446.776 169.004 445.147 164.56C444.167 161.889 443.057 159.253 442.399 156.485C441.511 152.761 441.46 148.894 441.528 145.066C441.624 139.68 442.539 135.449 444.675 131.267C445.692 129.736 446.76 128.251 448.146 127.204C448.925 126.614 450.133 126.119 450.774 126.858C451.129 127.268 451.106 127.872 451.064 128.412C450.926 130.154 450.789 131.896 450.651 133.639C451.332 133.632 452.013 133.625 452.695 133.619C453.865 131.314 454.438 128.707 454.341 126.124C454.32 125.575 454.265 125.011 454.014 124.523Z" fill="#3B3C3A"/>
<path fill-rule="evenodd" clip-rule="evenodd" d="M422.977 117.915C421.205 113.907 415.385 115.382 412.361 116.89C406.277 119.926 401.551 125.232 398.182 131.137C394.812 137.041 392.687 143.564 390.744 150.079C389.459 154.391 388.27 159.173 390.167 163.253C392.612 162.871 393.086 159.629 393.231 157.158C393.777 147.834 398.2 139.308 403.98 132.151C406.897 128.539 410.182 125.179 413.694 122.142C416.516 119.701 418.715 119.402 421.543 118.444C421.596 118.519 421.637 118.601 421.661 118.692C421.731 118.965 421.642 119.255 421.52 119.509C421.219 120.132 420.704 120.649 420.082 120.952C420.556 121.116 421.03 121.281 421.505 121.447C421.61 121.484 421.719 121.521 421.831 121.506C422.075 121.476 422.215 121.223 422.318 120.998C422.585 120.41 422.858 119.808 422.927 119.163C422.97 118.77 422.909 118.359 422.755 117.997C422.831 117.967 422.899 117.945 422.977 117.915Z" fill="#3B3C3A"/>
<path fill-rule="evenodd" clip-rule="evenodd" d="M460.221 150.849C459.884 152.059 459.633 153.378 458.74 154.26C457.876 155.116 456.604 155.367 455.479 155.83C454.354 156.292 453.209 157.235 453.295 158.447C453.433 160.427 456.389 160.808 457.353 162.544C457.885 161.026 458.462 159.439 459.67 158.38C460.779 157.409 462.322 156.974 463.267 155.845C464.499 154.37 464.546 151.912 466.257 151.035C466.661 150.827 467.229 150.527 467.06 150.106C466.996 149.95 466.842 149.854 466.698 149.768C463.415 147.836 461.673 146.493 460.221 150.849Z" fill="#FFFFFE"/>
<path fill-rule="evenodd" clip-rule="evenodd" d="M466.44 155.31C466.237 156.034 466.087 156.824 465.553 157.353C465.036 157.864 464.273 158.014 463.599 158.292C462.927 158.57 462.24 159.133 462.291 159.86C462.373 161.045 464.145 161.274 464.722 162.313C465.04 161.405 465.386 160.454 466.11 159.819C466.774 159.238 467.698 158.978 468.264 158.301C469.002 157.418 469.029 155.947 470.055 155.42C470.295 155.296 470.636 155.116 470.535 154.864C470.497 154.771 470.404 154.713 470.318 154.662C468.352 153.506 467.309 152.702 466.44 155.31Z" fill="#FFFFFE"/>
<path fill-rule="evenodd" clip-rule="evenodd" d="M436.962 93.4116C436.471 93.5455 435.955 93.6366 435.453 93.5455C434.953 93.4544 434.467 93.1518 434.269 92.6839C434.008 92.072 434.292 91.3533 434.727 90.8505C435.162 90.3477 435.733 89.9833 436.198 89.5086C436.612 89.0857 436.969 88.5548 437.528 88.3636C437.623 88.3309 437.745 88.3141 437.812 88.3883C437.86 88.4389 437.866 88.5165 437.864 88.5874C437.827 89.6076 436.803 90.2667 436.248 91.1261C436.057 91.4185 435.935 91.8425 436.182 92.0889C436.388 92.2947 436.727 92.2508 437.012 92.1901C437.946 91.9966 438.911 91.7177 439.855 91.6401C439.569 92.6456 437.868 93.1394 436.962 93.4116Z" fill="#1E0D5A"/>
<path fill-rule="evenodd" clip-rule="evenodd" d="M427.963 84.4129C427.473 84.5468 426.956 84.6379 426.456 84.5468C425.954 84.4557 425.471 84.1542 425.27 83.6852C425.009 83.0744 425.294 82.3546 425.729 81.8518C426.165 81.3501 426.737 80.9846 427.201 80.5099C427.614 80.087 427.97 79.5561 428.53 79.3649C428.626 79.3323 428.746 79.3165 428.815 79.3896C428.863 79.4414 428.869 79.519 428.865 79.5887C428.829 80.61 427.806 81.2691 427.251 82.1262C427.061 82.4198 426.937 82.8438 427.185 83.0902C427.392 83.2971 427.729 83.251 428.015 83.1925C428.948 82.9979 429.914 82.7201 430.857 82.6414C430.572 83.6481 428.871 84.1407 427.963 84.4129Z" fill="#1E0D5A"/>
<path fill-rule="evenodd" clip-rule="evenodd" d="M426.004 97.9018C426.843 97.8005 427.683 97.6993 428.522 97.5981C429.63 97.4653 430.774 97.3202 431.738 96.7556C432.149 96.516 432.558 96.1921 433.033 96.2101C432.979 97.0312 432.277 97.6476 431.587 98.0986C429.331 99.5777 426.611 100.312 423.92 100.247C422.202 100.205 417.928 99.7374 417.297 97.7803C418.19 97.417 419.445 97.913 420.379 98.0379C422.263 98.2909 424.125 98.1278 426.004 97.9018Z" fill="#E160B2"/>
<path fill-rule="evenodd" clip-rule="evenodd" d="M277.183 238.045C279.045 239.96 280.748 242.045 282.821 243.732C285.051 245.546 287.643 246.846 290.198 248.163C299.212 252.81 308.032 257.831 316.628 263.213C317.355 261.536 318.082 259.86 318.809 258.184C309.155 252.448 299.5 246.713 289.845 240.978C286.381 238.92 282.899 236.849 279.835 234.233C277.987 232.657 276.308 230.894 274.596 229.172C271.212 225.771 267.685 222.512 264.028 219.406C262.704 218.282 255.895 211.398 254.245 212.115C248.787 214.487 264.164 227.134 265.568 228.247C269.539 231.394 273.642 234.401 277.183 238.045Z" fill="#3DE1AE"/>
<path fill-rule="evenodd" clip-rule="evenodd" d="M319.459 100.626C319.414 99.7775 319.406 98.8237 319.996 98.2141C320.586 97.6033 321.946 97.9003 321.868 98.745C323.323 96.6191 325.04 94.5416 327.384 93.4708C329.727 92.4012 332.83 92.6205 334.491 94.59C335.57 95.87 335.869 97.6146 336.128 99.2703C336.531 101.842 336.911 104.591 335.821 106.954C335.221 108.255 334.218 109.326 333.166 110.298C331.104 112.2 328.778 113.817 326.274 115.088C318.679 118.943 319.653 104.259 319.459 100.626Z" fill="#FED0EF"/>
<path fill-rule="evenodd" clip-rule="evenodd" d="M322.988 100.001C322.935 100.175 322.889 100.371 322.973 100.533C323.16 100.893 323.703 100.726 324.048 100.514C325.426 99.6601 326.805 98.8076 328.184 97.9538C326.711 99.5747 325.162 101.362 324.971 103.543C326.886 103.751 328.059 101.311 329.928 100.843C328.138 102.5 326.974 104.818 326.715 107.245C328.621 106.6 330.425 105.655 332.039 104.456C330.521 105.376 329.307 106.79 328.625 108.43C328.578 108.545 328.532 108.666 328.542 108.79C328.565 109.104 328.949 109.285 329.259 109.223C329.568 109.16 329.816 108.936 330.056 108.73C331.073 107.856 332.241 107.158 333.493 106.677C332.5 107.661 331.507 108.646 330.514 109.63C330.096 110.044 329.655 110.472 329.095 110.649C328.534 110.827 327.819 110.664 327.56 110.135C327.285 109.574 327.623 108.918 327.952 108.386C327.404 108.693 326.687 108.688 326.156 108.353C325.624 108.016 325.31 107.355 325.41 106.734C325.523 106.034 326.086 105.507 326.616 105.036C325.649 105.347 324.666 105.61 323.67 105.823C323.553 104.655 323.809 103.454 324.389 102.435C323.754 102.599 323.118 102.765 322.481 102.929C322.313 102.973 322.127 103.015 321.969 102.941C321.708 102.819 321.67 102.464 321.697 102.177C321.88 100.179 323.463 97.2092 325.253 96.2093C324.235 97.3026 323.423 98.5635 322.988 100.001Z" fill="#FF8BBB"/>
<path fill-rule="evenodd" clip-rule="evenodd" d="M239.828 107.714C240.571 107.304 241.386 106.807 241.593 105.985C241.8 105.162 240.83 104.163 240.153 104.674C241.191 102.317 242.049 99.7625 241.722 97.207C241.395 94.6515 239.572 92.132 237.022 91.7608C235.365 91.5189 233.724 92.1859 232.182 92.8394C229.785 93.8551 227.249 94.9822 225.818 97.1553C225.029 98.3509 224.648 99.7682 224.379 101.175C223.85 103.931 223.705 106.76 223.946 109.557C224.68 118.044 236.639 109.466 239.828 107.714Z" fill="#FED0EF"/>
<path fill-rule="evenodd" clip-rule="evenodd" d="M238.414 103.953C238.293 104.091 238.151 104.234 237.969 104.247C237.565 104.279 237.42 103.729 237.419 103.324C237.416 101.703 237.414 100.081 237.41 98.4589C236.811 100.566 236.11 102.824 234.359 104.138C233.171 102.621 234.624 100.337 234.036 98.5027C233.572 100.897 232.217 103.11 230.294 104.609C229.836 102.651 229.687 100.621 229.853 98.6163C229.872 100.391 229.312 102.17 228.278 103.613C228.206 103.714 228.127 103.816 228.017 103.874C227.737 104.02 227.382 103.789 227.271 103.493C227.161 103.198 227.221 102.87 227.269 102.558C227.474 101.231 227.45 99.8705 227.199 98.5522C226.887 99.9166 226.575 101.28 226.264 102.642C226.132 103.216 226.001 103.815 226.147 104.385C226.291 104.956 226.807 105.478 227.392 105.418C228.015 105.355 228.393 104.722 228.671 104.162C228.7 104.79 229.082 105.395 229.648 105.67C230.214 105.944 230.942 105.861 231.416 105.449C231.95 104.984 232.101 104.227 232.222 103.528C232.468 104.515 232.764 105.489 233.108 106.445C234.162 105.929 235.047 105.078 235.606 104.047C235.803 104.674 235.997 105.301 236.193 105.929C236.246 106.095 236.308 106.275 236.454 106.371C236.696 106.529 237.015 106.372 237.246 106.197C238.848 104.988 240.534 102.076 240.439 100.028C240.048 101.469 239.406 102.825 238.414 103.953Z" fill="#FF8BBB"/>
<path fill-rule="evenodd" clip-rule="evenodd" d="M291.879 347.894C292.643 349.59 294.07 351.615 295.845 351.061C295.033 341.957 293.759 332.895 292.032 323.92C291.68 322.094 291.276 320.196 290.123 318.735C284.64 311.788 281.222 324.232 282.646 328.458C284.849 334.993 289.026 341.551 291.879 347.894Z" fill="black"/>
<path fill-rule="evenodd" clip-rule="evenodd" d="M275.071 425.413C275.749 426.921 277.019 428.72 278.597 428.228C277.875 420.136 276.742 412.079 275.207 404.101C274.893 402.476 274.535 400.789 273.511 399.491C268.636 393.314 265.596 404.377 266.863 408.134C268.82 413.945 272.534 419.775 275.071 425.413Z" fill="black"/>
<path fill-rule="evenodd" clip-rule="evenodd" d="M188.772 341.941C187.282 351.773 186.836 362.891 193.247 370.493C196.091 373.868 199.994 376.145 203.815 378.355C223.62 389.805 243.919 401.445 266.411 405.627C267.255 403.192 268.1 400.755 268.945 398.32C255.419 393.675 242.794 386.423 231.965 377.082C226.031 371.962 220.275 365.389 220.243 357.551C220.228 353.673 221.642 349.945 223.116 346.357C229.88 329.896 238.452 313.736 240.292 296.035C240.431 294.697 240.51 293.256 239.832 292.094C239.168 290.958 237.916 290.321 236.713 289.788C229.807 286.733 222.245 285.165 214.695 285.174C206.495 285.184 204.872 287.018 201.868 294.36C195.628 309.611 191.242 325.65 188.772 341.941Z" fill="#00AC76"/>
<path fill-rule="evenodd" clip-rule="evenodd" d="M233.567 303.164C232.963 308.018 230.198 312.283 227.755 316.522C221.734 326.959 217.278 338.296 214.579 350.04C213.173 356.16 212.899 363.952 218.246 367.243C223.208 370.294 229.554 367.323 234.575 364.372C251.466 354.447 268.478 344.433 283.128 331.427C285.341 329.463 287.598 327.264 288.301 324.391C289.004 321.517 287.393 317.894 284.453 317.559C271.75 327.299 257.835 335.46 243.132 341.791C249.936 336.21 256.281 330.069 262.081 323.449C267.974 316.725 273.517 308.973 274.211 300.058C274.905 291.144 268.849 281.198 259.923 280.696C256.313 280.493 252.809 281.793 249.429 283.071C242.681 285.625 234.325 287.545 228.308 291.378C231.874 294.398 234.175 298.276 233.567 303.164Z" fill="#00AC76"/>
<path fill-rule="evenodd" clip-rule="evenodd" d="M205.837 288.615C225.111 297.099 248.798 294.585 265.861 282.245C263.141 279.285 261.179 275.632 260.21 271.73C260.038 271.036 259.877 270.296 259.385 269.779C258.831 269.196 257.986 269.023 257.196 268.887C245.303 266.843 232.325 266.393 220.448 268.86C210.774 270.868 209.196 280.171 205.837 288.615Z" fill="#FEFEFC"/>
<path fill-rule="evenodd" clip-rule="evenodd" d="M246.607 142.994C253.501 144.343 260.084 148.705 262.695 155.226C264.09 158.711 264.315 162.619 266.023 165.961C269.338 172.446 277.199 175.067 284.406 176.114C291.611 177.161 299.296 177.367 305.431 181.289C310.217 184.348 313.592 189.425 318.724 191.857C324.924 194.797 332.177 193.26 339.02 192.763C339.884 192.699 340.786 192.661 341.578 193.011C343.802 193.998 343.648 197.517 341.858 199.167C340.067 200.816 337.447 201.103 335.021 201.308C337.407 201.273 339.794 201.238 342.179 201.203C340.926 205.132 338.002 208.498 334.287 210.289C336.101 208.715 338.729 208.137 341.034 208.806C338.795 212.757 334.992 215.795 330.642 217.106C331.868 216.788 333.174 216.475 334.377 216.868C335.58 217.263 336.536 218.671 335.981 219.808C335.638 220.508 334.865 220.876 334.132 221.14C331.541 222.073 328.721 222.365 325.994 221.986C328.607 222.109 331.18 222.983 333.33 224.475C330.42 227.047 326.184 228.027 322.44 226.997C325.427 227.748 328.223 229.244 330.504 231.313C326.996 233.246 322.606 233.497 318.901 231.975C319.702 233.297 321.375 233.718 322.749 234.424C324.123 235.129 325.405 236.777 324.608 238.1C323.855 239.348 322.003 239.131 320.61 238.7C318.175 237.948 315.791 237.034 313.476 235.966C315.873 237.47 318.27 238.973 320.667 240.477C310.598 242.882 299.602 241.15 290.762 235.761C278.003 227.986 269.867 213.221 255.797 208.196C249.321 205.885 242.235 205.923 235.617 204.065C222.792 200.463 212.427 189.245 209.852 176.176C208.554 169.588 209.168 162.524 212.23 156.548C218.315 144.668 234.209 140.568 246.607 142.994Z" fill="#272E35"/>
<path fill-rule="evenodd" clip-rule="evenodd" d="M247.375 209.635C267.673 180.18 294.723 142.141 315.021 112.685C316.749 110.178 318.987 107.394 322.031 107.458C325.408 107.53 327.676 111.369 327.379 114.733C327.083 118.098 325.027 121.01 323.08 123.768C314.588 135.8 300.104 156.928 292.378 169.463C287.597 177.222 282.814 184.982 278.031 192.741C268.238 208.632 258.071 226.008 259.773 244.596C260.591 253.54 262.676 262.958 263.733 271.878C263.851 272.877 263.965 273.918 263.614 274.86C263.2 275.971 262.212 276.752 261.248 277.44C246.84 287.732 227.111 290.084 210.687 283.468C209.694 283.066 208.678 282.612 207.973 281.805C206.071 279.63 207.291 276.287 208.424 273.627C212.674 263.643 214.451 252.617 213.552 241.803C212.98 234.932 211.356 227.949 212.917 221.233C213.346 219.386 214.017 217.526 213.765 215.647C213.461 213.383 211.882 211.529 210.398 209.793C202.863 200.978 196.07 191.527 190.117 181.575C188.723 179.245 187.351 176.823 186.892 174.146C186.185 170.028 187.717 165.884 189.341 162.033C196.901 144.081 207.054 127.223 219.383 112.141C220.51 110.762 221.756 109.33 223.463 108.823C227.325 107.676 230.898 112.232 230.525 116.243C230.151 120.254 227.355 123.549 224.855 126.708C217.77 135.656 212.102 145.722 208.127 156.421C205.665 163.046 203.883 170.558 206.696 177.042C207.804 179.596 209.557 181.805 211.291 183.982C216.671 190.739 222.051 197.497 227.43 204.253C228.162 205.171 228.917 206.111 229.934 206.695C230.952 207.279 232.146 207.459 233.306 207.626C238.153 208.328 242.53 208.933 247.375 209.635Z" fill="#87919D"/>
<path fill-rule="evenodd" clip-rule="evenodd" d="M218.428 165.959C218.428 165.959 216.924 180.87 221.81 189.892C225.946 196.282 233.839 195.655 233.839 204.302C233.839 209.189 231.207 212.195 234.215 214.075C237.223 215.955 244.364 217.458 246.996 212.571C247.372 209.189 245.492 202.046 249.251 199.039C253.01 196.031 255.767 191.772 256.894 183.878C258.022 175.983 258.649 167.463 254.139 158.441C249.627 149.419 239.101 146.412 231.583 148.667C224.065 150.923 219.555 159.192 218.428 165.959Z" fill="#FED0EF"/>
<path fill-rule="evenodd" clip-rule="evenodd" d="M232.514 166.623C237.105 170.004 242.394 172.292 247.27 175.246C252.148 178.198 256.793 182.057 258.943 187.337C260.273 180.573 261.608 173.694 260.952 166.831C260.298 159.969 257.359 153 251.703 149.059C248.588 146.889 244.859 145.764 241.123 145.09C238.284 144.579 235.345 144.313 232.531 144.944C218.238 148.15 223.984 160.339 232.514 166.623Z" fill="#272E35"/>
<path fill-rule="evenodd" clip-rule="evenodd" d="M222.037 307.646C222.474 308.006 222.923 308.383 223.167 308.895C223.588 309.783 223.288 310.829 222.991 311.766C220.635 319.193 218.71 326.756 217.233 334.406C215.868 341.471 214.883 348.713 215.788 355.851C216.203 359.126 217.085 362.486 219.273 364.956C221.46 367.426 225.239 368.726 228.184 367.24C225.042 368.674 221.16 367.572 218.607 365.244C216.053 362.916 214.638 359.584 213.788 356.236C210.345 342.687 215.027 328.591 218.639 315.087C219.252 312.797 219.835 310.36 219.158 308.087C218.766 306.773 217.996 305.519 217.601 304.295C219.228 305.087 220.614 306.469 222.037 307.646Z" fill="#00895E"/>
<path fill-rule="evenodd" clip-rule="evenodd" d="M238.08 229.59C242.563 235.942 248.729 240.919 255.173 245.268C257.415 246.782 259.717 248.243 261.659 250.128C263.639 252.051 265.193 254.366 267.004 256.452C270.819 260.843 275.765 264.201 279.221 268.881C282.862 273.807 284.872 280.189 289.938 283.633C290.995 284.351 292.264 285.052 292.567 286.295C292.978 287.986 291.369 289.43 289.944 290.429C289.625 290.651 289.278 290.883 288.89 290.874C288.506 290.863 288.172 290.619 287.874 290.38C279.487 283.645 276.057 272.292 268.116 265.036C266.315 263.389 264.306 261.979 262.528 260.306C259.442 257.405 257.128 253.79 254.309 250.629C249.03 244.707 242.115 240.517 236.183 235.247C234.745 233.968 233.356 232.616 232.23 231.055C230.124 228.133 229.033 224.609 228.223 221.098C227.278 217.002 225.458 210.863 226.299 206.673C226.949 203.429 229.58 203.399 230.504 206.37C231.521 209.636 231.055 213.412 232.006 216.792C233.29 221.359 235.343 225.713 238.08 229.59Z" fill="#3DE1AE"/>
<path fill-rule="evenodd" clip-rule="evenodd" d="M291.436 297.325C295.911 305.348 300.387 313.37 304.861 321.393C305.904 323.261 306.977 325.169 308.582 326.583C310.187 327.997 312.455 328.849 314.501 328.224C315.916 327.793 317.037 326.733 318.104 325.707C320.735 323.175 323.368 320.641 325.881 317.988C331.515 312.039 336.528 305.5 340.811 298.513C341.82 296.868 342.791 295.192 343.527 293.408C345.025 289.783 345.511 285.826 345.811 281.914C345.917 280.555 345.999 279.165 345.648 277.847C345.311 276.586 344.593 275.459 343.785 274.435C340.5 270.276 335.722 267.62 331.073 265.074C327.676 263.212 324.281 261.351 320.884 259.49C319.348 258.648 317.567 257.782 315.919 258.375C314.638 258.835 313.817 260.054 313.064 261.189C307.471 269.623 300.787 277.331 293.232 284.063C291.571 285.543 288.083 287.96 287.95 290.414C287.835 292.505 290.455 295.565 291.436 297.325Z" fill="#3DE1AE"/>
<path fill-rule="evenodd" clip-rule="evenodd" d="M255.329 292.282C255.82 297.433 258.761 301.888 263.336 304.317C263.763 304.543 264.143 303.896 263.716 303.668C259.388 301.369 256.546 297.168 256.081 292.282C256.036 291.805 255.283 291.801 255.329 292.282Z" fill="#FFFFFE"/>
<path fill-rule="evenodd" clip-rule="evenodd" d="M267.389 297.739C257.666 318.026 236.79 331.298 230.597 353.518C230.525 353.775 230.723 353.965 230.959 353.994C235.979 354.591 240.398 352.652 244.83 350.521C250.365 347.859 256.047 345.342 261.443 342.409C265.981 339.942 268.933 335.735 272.918 332.544C277.89 328.562 283.343 325.118 288.574 321.492C288.97 321.218 288.595 320.566 288.195 320.843C283.449 324.133 278.596 327.312 273.98 330.786C269.952 333.815 266.873 338.15 262.651 340.842C257.818 343.926 252.224 346.091 247.073 348.597C244.268 349.961 241.456 351.48 238.478 352.439C237.033 352.904 234.987 353.655 233.524 353.413C231.79 353.127 231.712 353.215 232.05 351.247C232.923 346.172 236.751 340.687 239.61 336.497C242.765 331.873 246.361 327.578 249.987 323.322C256.716 315.422 263.519 307.55 268.038 298.12C268.247 297.685 267.599 297.303 267.389 297.739Z" fill="#FFFFFE"/>
<path fill-rule="evenodd" clip-rule="evenodd" d="M222.502 309.193C223.409 309.504 224.357 309.724 225.318 309.724C227.406 309.724 229.465 308.687 231.514 309.09C224.225 308.501 217.134 304.165 211.461 299.796C215.639 302.642 217.175 307.373 222.502 309.193Z" fill="#00895E"/>
<path fill-rule="evenodd" clip-rule="evenodd" d="M300.563 290.133C301.394 291.432 302.832 292.618 304.124 293.683C304.674 294.139 305.208 294.58 305.681 295.01C310.019 298.991 315.12 303.168 320.803 302.435C325.518 301.822 329.054 298.057 332.275 294.255C335.82 290.062 339.06 285.883 339.774 280.855C340.189 277.93 339.333 274.687 337.542 272.389C336.888 271.551 336.144 270.875 335.331 270.379C336.991 272.014 338.062 274.467 338.14 277.112C338.25 280.834 336.636 284.372 335.218 287.04C332.833 291.524 327.669 299.049 319.9 299.115C319.857 299.115 319.812 299.115 319.769 299.115C315.285 299.115 311.751 296.682 308.337 294.33C305.896 292.648 303.381 290.915 300.563 290.133ZM319.476 303.272C314.063 303.273 309.279 299.331 305.172 295.566C304.71 295.142 304.186 294.71 303.645 294.262C302.054 292.952 300.254 291.466 299.488 289.722L299.194 289.056L299.908 289.201C303.206 289.881 306.032 291.827 308.763 293.709C312.235 296.101 315.518 298.363 319.764 298.363C319.808 298.363 319.848 298.363 319.891 298.363H319.893C327.274 298.303 332.246 291.023 334.553 286.688C335.93 284.102 337.494 280.679 337.388 277.136C337.302 274.198 335.699 270.518 332.385 269.38L329.249 268.302L332.547 268.65C334.71 268.879 336.64 270.012 338.135 271.926C340.049 274.381 340.96 277.842 340.517 280.961C339.776 286.188 336.466 290.461 332.847 294.738C329.678 298.485 325.881 302.535 320.9 303.181C320.421 303.243 319.946 303.272 319.476 303.272Z" fill="#FFFFFE"/>
<path fill-rule="evenodd" clip-rule="evenodd" d="M322.43 284.41C323.147 285.387 323.953 286.298 324.836 287.126C325.507 287.756 326.271 288.361 327.181 288.498C328.091 288.634 329.155 288.128 329.329 287.224C329.437 286.665 329.195 286.099 328.908 285.608C328.081 284.181 326.831 283.004 325.36 282.261C324.26 281.707 322.697 281.502 321.986 282.509C321.552 283.124 321.633 283.99 321.989 284.654C322.345 285.319 322.931 285.825 323.502 286.314" fill="#FFFFFE"/>
<path fill-rule="evenodd" clip-rule="evenodd" d="M226.636 178.852C227.234 177.651 227.49 176.281 227.364 174.945C226.82 175.048 226.471 175.583 226.295 176.106C226.12 176.631 226.051 177.199 225.762 177.67C224.376 179.927 223.719 176.297 223.103 175.769C221.534 177.807 225.047 182.043 226.636 178.852Z" fill="#1E0D5A"/>
<path fill-rule="evenodd" clip-rule="evenodd" d="M247.61 173.82C247.067 173.922 246.716 174.458 246.541 174.982C246.366 175.506 246.296 176.074 246.008 176.544C244.623 178.803 243.965 175.171 243.349 174.644C241.781 176.681 245.291 180.917 246.882 177.726C247.48 176.525 247.736 175.156 247.61 173.82Z" fill="#1E0D5A"/>
<path fill-rule="evenodd" clip-rule="evenodd" d="M233.905 187.458C234.285 187.477 234.783 187.133 234.941 186.786C235.42 185.722 236.071 186.153 236.394 186.068C236.716 185.982 236.925 185.693 237.05 185.286C237.175 184.88 236.24 175.811 234.105 177.419C232.23 178.833 232.888 184.661 233.212 186.511C233.285 186.928 233.481 187.438 233.905 187.458Z" fill="#FF8BBB"/>
<path fill-rule="evenodd" clip-rule="evenodd" d="M242.475 189.447C244.145 188.935 245.599 187.747 246.431 186.212C246.667 186.112 246.871 186.417 246.924 186.668C247.075 187.392 246.942 188.173 246.558 188.806C246.255 189.305 245.813 189.702 245.366 190.077C244.802 190.55 244.218 191.001 243.619 191.429C242.783 192.026 241.826 192.601 240.802 192.506C239.99 192.432 236.662 190.412 237.451 189.492C237.762 189.129 239.125 189.616 239.476 189.657C240.493 189.775 241.489 189.748 242.475 189.447Z" fill="#E160B2"/>
<path fill-rule="evenodd" clip-rule="evenodd" d="M60.8419 105.241C58.9758 105.071 57.1233 105.586 55.3203 106.097C52.4442 106.91 49.495 107.76 47.1093 109.561C42.7001 112.889 41.1108 118.719 40.1828 124.164C37.273 141.238 38.1436 158.717 39.5181 175.982C39.8308 179.915 40.2143 183.993 42.1861 187.41C45.214 192.658 51.5218 195.313 57.5766 195.555C63.6302 195.795 69.5601 194.009 75.355 192.24C79.3615 191.016 83.7752 189.465 85.7076 185.749C86.5737 184.081 86.8178 182.168 87.0045 180.299C87.4521 175.829 87.649 171.333 87.5961 166.842C87.5309 161.381 87.0933 155.906 85.9191 150.573C84.8741 145.822 83.2533 141.219 81.6359 136.631C79.3919 130.263 77.1479 123.893 74.9029 117.523C74.0469 115.094 73.1572 112.605 71.5015 110.631C69.7344 108.526 63.6077 105.493 60.8419 105.241Z" fill="#9BA3A7"/>
<path fill-rule="evenodd" clip-rule="evenodd" d="M122.679 302.006C122.595 302.557 122.539 303.136 122.736 303.658C122.931 304.176 123.353 304.573 123.779 304.928C128.465 308.835 134.841 309.914 140.913 310.509C145.808 310.989 151.049 311.157 155.613 309.62C157.942 308.836 158.237 305.723 156.099 304.514C151.982 302.186 147.345 300.735 142.716 299.641C138.339 298.608 133.912 297.786 129.523 296.805C124.664 295.718 123.475 296.794 122.679 302.006Z" fill="black"/>
<path fill-rule="evenodd" clip-rule="evenodd" d="M124.877 297.08C124.844 297.513 124.822 297.958 124.957 298.37C125.126 298.89 125.525 299.299 125.931 299.666C128.413 301.904 131.675 303.26 135.012 303.44C136.966 303.545 139.274 303.018 140.047 301.22C138.144 299.691 136.239 298.161 134.336 296.63C134.019 296.375 133.692 296.108 133.514 295.739C133.35 295.398 133.334 295.007 133.32 294.627C133.263 292.976 133.207 291.324 133.149 289.673C133.154 289.779 126.951 289.623 126.39 290.069C125.087 291.103 124.993 295.554 124.877 297.08Z" fill="#FED0EF"/>
<path fill-rule="evenodd" clip-rule="evenodd" d="M151.886 212.121C153.673 213.192 155.528 214.369 156.504 216.21C157.712 218.486 157.312 221.245 156.84 223.778C152.316 248.152 144.234 271.862 132.928 293.924C129.875 294.341 126.694 293.756 123.989 292.281C128.139 272.744 131.236 252.982 133.261 233.11C116.798 225.778 100.84 217.306 85.541 207.777C84.5411 207.154 96.9869 196.176 98.2061 195.376C103.785 191.718 106.787 190.735 112.821 193.103C126.336 198.406 139.425 204.653 151.886 212.121Z" fill="#3DE1AE"/>
<path fill-rule="evenodd" clip-rule="evenodd" d="M49.9555 303.751C49.4729 304.032 48.9859 304.351 48.7024 304.832C48.4212 305.31 48.3785 305.887 48.3684 306.441C48.2638 312.541 51.4222 318.185 54.7673 323.287C57.2947 327.143 60.2259 331.063 63.9265 333.673C66.2109 335.285 69.33 333.208 68.8024 330.462C67.9656 326.11 66.284 321.89 64.3629 317.874C62.4226 313.818 60.2855 309.854 58.298 305.819C56.0968 301.354 54.512 301.103 49.9555 303.751Z" fill="black"/>
<path fill-rule="evenodd" clip-rule="evenodd" d="M54.2407 301.924C53.883 302.17 53.5219 302.432 53.2846 302.796C52.9865 303.254 52.9179 303.821 52.8876 304.366C52.7009 307.704 53.6907 311.095 55.6444 313.807C56.7861 315.394 58.6454 316.862 60.5294 316.336C60.5271 313.893 60.5249 311.453 60.5238 309.011C60.5226 308.602 60.526 308.178 60.7015 307.81C60.8635 307.47 61.1593 307.211 61.4461 306.962C62.6969 305.881 63.9476 304.802 65.1984 303.722C65.1185 303.79 61.3494 298.863 60.6497 298.705C59.0267 298.339 55.5016 301.056 54.2407 301.924Z" fill="#FED0EF"/>
<path fill-rule="evenodd" clip-rule="evenodd" d="M77.0714 229.629C87.0753 237.717 98.7731 243.595 108.355 252.178C89.5521 271.302 80.2354 280.959 59.0298 297.38C57.3493 300.147 59.843 303.944 62.9812 304.736C66.1205 305.528 69.3846 304.258 72.3023 302.857C79.3964 299.448 86.0079 295.128 92.5958 290.821C101.963 284.698 100.55 286.771 109.918 280.648C119.743 274.225 129.751 267.636 137.01 258.413C138.44 256.597 139.802 254.55 139.9 252.241C140.036 249.028 137.731 246.286 135.566 243.907C124.493 231.743 113.42 219.577 102.347 207.413C99.7483 204.558 96.9892 201.295 97.0702 197.437C97.1444 193.877 79.5122 190.756 76.8386 190.698C71.3294 190.58 62.5144 192.039 59.7699 197.659C54.5374 208.379 69.8919 223.824 77.0714 229.629Z" fill="#3DE1AE"/>
<path fill-rule="evenodd" clip-rule="evenodd" d="M104.425 98.4351C100.671 98.4148 96.1451 98.9356 94.5198 102.318C93.242 104.975 94.4568 107.853 96.27 110.37C97.2159 112.448 97.7322 115.49 93.5727 116.711C87.0962 118.613 79.6681 112.556 76.8313 109.756C77.3791 106.873 76.7548 103.751 75.503 101.048C73.8833 97.551 71.3424 94.5816 68.996 91.5244C66.751 88.5966 64.66 85.5506 62.7366 82.4023C60.9324 79.4475 59.2475 76.3296 58.6761 72.9147C58.1047 69.501 58.8099 65.7093 61.2496 63.2539C62.9739 61.5195 65.3551 60.6208 67.698 59.9189C73.9406 58.0495 80.6522 57.2374 86.9859 58.7705C92.8562 60.1911 98.3497 63.8455 101.208 69.1231C107.288 76.7469 111.869 85.5686 114.562 94.9426C112.655 98.1753 108.178 98.4565 104.425 98.4351Z" fill="#FED0EF"/>
<path fill-rule="evenodd" clip-rule="evenodd" d="M108.615 77.811C109.659 78.7255 110.716 79.8638 110.718 81.2506C110.263 81.8007 109.391 81.6083 108.719 81.3687C107.211 80.8311 105.703 80.2934 104.196 79.7558C104.386 80.0921 104.58 80.4408 104.625 80.8255C104.671 81.2102 104.53 81.6432 104.19 81.8277C103.652 82.1179 103.02 81.6634 102.614 81.2068C101.471 79.9234 97.2781 73.4109 99.747 72.6707C102.214 71.9329 106.981 76.3792 108.615 77.811Z" fill="#FF8BBB"/>
<path fill-rule="evenodd" clip-rule="evenodd" d="M90.0721 77.6848C90.5119 77.9413 90.9865 78.1617 91.4938 78.2034C92.0022 78.245 92.5489 78.0774 92.8616 77.6769C93.271 77.1528 93.1821 76.3846 92.8919 75.7873C92.6006 75.1889 92.1417 74.6895 91.8155 74.1102C91.5253 73.5951 91.3183 72.9911 90.8268 72.6615C90.7425 72.6053 90.63 72.5592 90.5456 72.612C90.4849 72.6491 90.4601 72.7222 90.4444 72.7909C90.2172 73.7874 91.036 74.6884 91.351 75.6602C91.4589 75.992 91.4679 76.4341 91.1654 76.6084C90.9134 76.7535 90.5974 76.623 90.3375 76.4925C89.4849 76.064 88.6256 75.5466 87.7336 75.2272C87.7505 76.2732 89.2656 77.1888 90.0721 77.6848Z" fill="#1E0D5A"/>
<path fill-rule="evenodd" clip-rule="evenodd" d="M100.195 72.0605C100.635 72.318 101.11 72.5385 101.618 72.579C102.125 72.6206 102.672 72.4541 102.985 72.0526C103.394 71.5284 103.305 70.7602 103.015 70.1629C102.725 69.5657 102.265 69.0651 101.939 68.487C101.648 67.9718 101.442 67.3667 100.95 67.0383C100.866 66.9809 100.754 66.9348 100.668 66.9888C100.609 67.0248 100.583 67.099 100.569 67.1676C100.34 68.1642 101.159 69.064 101.474 70.037C101.582 70.3688 101.592 70.8097 101.29 70.984C101.038 71.1303 100.722 70.9998 100.461 70.8682C99.6092 70.4396 98.7488 69.9222 97.8568 69.6028C97.8737 70.65 99.3899 71.5644 100.195 72.0605Z" fill="#1E0D5A"/>
<path fill-rule="evenodd" clip-rule="evenodd" d="M98.6168 86.1571C97.8317 85.8444 97.0477 85.5295 96.2626 85.2156C95.2256 84.8006 94.1581 84.3664 93.3719 83.5723C93.0378 83.2349 92.7263 82.8165 92.2617 82.7119C92.1031 83.5183 92.6228 84.2944 93.1706 84.9074C94.9691 86.9197 97.4077 88.3313 100.026 88.9612C101.696 89.3639 105.946 90.014 107.061 88.2863C106.291 87.7037 104.95 87.86 104.016 87.7397C102.131 87.4978 100.374 86.8601 98.6168 86.1571Z" fill="#E160B2"/>
<path fill-rule="evenodd" clip-rule="evenodd" d="M66.5385 71.0558C66.2956 69.796 67.0987 68.4192 68.3146 68.0121C69.923 70.4619 72.9431 73.2243 75.3029 71.4865C76.2522 70.7869 76.6718 69.5317 77.629 68.8444C79.1542 67.7477 81.2452 68.5081 83.0414 69.0548C84.8377 69.6014 87.3055 69.5947 88.013 67.8557C88.211 67.3676 88.2211 66.8209 88.3853 66.3204C89.3155 63.5028 93.4165 64.3284 96.3545 63.9145C100.472 63.3352 103.381 58.9778 103.175 54.8239C102.97 50.6712 100.219 46.9582 96.7504 44.6626C93.2827 42.368 89.1603 41.2916 85.0784 40.5008C82.1843 39.9396 79.0462 39.5335 76.4041 40.8405C71.7677 43.1317 70.3336 49.831 65.4306 51.4777C63.9807 51.9636 62.4072 51.9231 60.9247 52.2965C57.9091 53.0569 55.4402 55.6608 54.8418 58.7123C54.6202 59.8405 54.6326 61.0226 54.2367 62.1024C53.7193 63.5163 52.5709 64.5848 51.5653 65.7051C47.9817 69.6993 45.9076 75.6618 48.2101 80.5085C49.2168 82.6298 50.9411 84.3114 52.6282 85.9446C54.6 87.8511 56.5718 89.7588 58.5435 91.6664C59.5682 92.6574 60.6356 93.6764 61.9775 94.1578C64.4003 95.0273 67.4035 94.0375 69.4675 95.5762C71.0028 96.7212 71.3841 98.819 72.2941 100.505C73.2029 102.191 75.5728 103.55 76.9338 102.201C77.5097 101.629 77.6627 100.764 77.7347 99.955C78.1306 95.448 76.8124 90.8127 74.1039 87.1886C73.6506 86.5812 73.1275 85.9783 72.4212 85.7039C71.6608 85.4092 70.8116 85.5386 69.9972 85.4846C68.3033 85.3732 66.6375 84.3283 66.0312 82.7423C65.4239 81.1564 66.0931 79.116 67.6318 78.3984C70.9724 76.8383 73.8407 81.676 77.4557 82.3959C78.0834 80.2734 76.7314 78.0542 75.0926 76.565C73.4549 75.0769 71.4572 73.9487 70.1401 72.1693C68.5294 69.9962 68.1751 66.9559 69.2425 64.4701" fill="#222222"/>
<path fill-rule="evenodd" clip-rule="evenodd" d="M90.3858 93.89C91.2383 94.458 92.2349 94.7606 93.2225 95.0339C96.0254 95.81 98.879 96.4073 101.759 96.8201C104.485 97.2115 107.393 97.4117 109.876 96.2217C112.361 95.0317 114.157 91.9958 113.078 89.4606C114.151 91.1241 115.224 92.7877 116.298 94.4513C116.948 95.458 117.624 96.6559 117.231 97.7874C116.776 99.0978 115.182 99.5421 113.817 99.7985C111.817 100.173 109.816 100.549 107.815 100.924C106.67 101.139 105.497 101.354 104.346 101.175C103.023 100.969 101.829 100.257 100.526 99.9515C99.4009 99.6883 98.23 99.7344 97.0783 99.6489C92.7141 99.3272 88.5973 96.9258 85.9979 93.4322C85.1735 92.3232 83.1905 90.0691 85.2983 89.9397C87.2296 89.8216 88.9854 92.9564 90.3858 93.89Z" fill="#222222"/>
<path fill-rule="evenodd" clip-rule="evenodd" d="M78.9537 108.142C71.421 107.162 63.7409 109.45 57.1586 113.24C50.5775 117.03 44.9479 122.253 39.5376 127.585C34.2511 132.793 29.0917 138.17 24.7197 144.168C10.121 164.197 5.27317 191.006 11.933 214.879C12.365 212.49 12.7969 210.099 13.2288 207.71C13.1028 210.214 13.5246 212.745 14.4548 215.074C16.5312 213.578 17.4906 210.698 16.7269 208.255C16.5312 211.054 17.6762 213.919 19.747 215.813C21.0225 212.951 21.2733 209.645 20.4455 206.623C20.0124 209.759 21.0855 213.07 23.2777 215.355C24.7568 211.59 25.056 207.371 24.1235 203.434C25.2089 205.894 28.0074 207.475 30.6743 207.137C30.2885 203.86 28.0682 201.142 26.6543 198.161C23.5904 191.705 24.3755 184.071 26.3011 177.189C32.1444 156.309 48.3796 138.614 68.681 131.001C60.0201 155.536 57.9246 183.413 64.7003 208.534C64.9647 209.512 65.2706 210.539 66.0107 211.232C66.8082 211.975 67.9521 212.186 69.0319 212.335C86.6934 214.768 105.34 208.555 118.011 196.015C108.158 173.871 104.742 148.907 108.281 124.93C108.612 122.694 108.968 120.261 107.853 118.296C107.079 116.932 105.715 116.025 104.4 115.17C99.9355 112.266 95.3947 109.328 90.2994 107.777C85.2041 106.226 83.4989 105.368 78.9537 108.142Z" fill="#FED0EF"/>
<path fill-rule="evenodd" clip-rule="evenodd" d="M123.668 139.517C125.235 143.006 126.918 144.533 130.575 145.655C133.308 146.495 136.086 146.364 138.156 144.392C140.225 142.42 141.228 140.46 142.487 137.894C143.59 135.651 144.273 133.098 145.376 130.855C147.524 126.48 150.637 122.29 148.184 118.078C147.756 117.341 147.184 116.637 147.1 115.789C147.015 114.94 147.754 113.953 148.567 114.205C149.055 114.354 149.328 114.859 149.539 115.324C150.22 116.823 150.783 118.377 151.22 119.964C151.437 115.547 153.681 111.27 157.193 108.582C157.26 112.003 156.418 115.435 154.776 118.436C156.68 115.324 159.423 112.73 162.638 111.003C163.192 114.98 157.486 117.466 157.404 121.48C159.605 118.498 162.793 116.26 166.344 115.201C166.768 116.069 166.004 117.022 165.303 117.684C163.027 119.833 160.752 121.983 158.476 124.131C161.631 122.109 164.963 120.364 168.423 118.924C168.5 120.829 167.369 122.596 165.966 123.886C164.565 125.176 162.88 126.115 161.384 127.294C156.926 130.805 154.416 136.162 151.914 141.254C149.715 145.727 147.374 150.191 144.107 153.955C140.841 157.718 136.532 160.768 131.63 161.664C127.03 162.506 122.099 161.332 118.371 158.51C112.214 153.849 110.008 145.748 105.849 139.243C104.355 136.905 102.589 134.754 101.023 132.462C98.8184 129.237 97.0154 125.736 95.669 122.068C94.9604 120.136 94.371 118.106 94.5003 116.052C94.8333 110.791 97.6846 111.093 101.182 113.36C104.441 115.475 107.496 117.902 110.296 120.595C115.896 125.98 120.483 132.428 123.668 139.517Z" fill="#FED0EF"/>
<path fill-rule="evenodd" clip-rule="evenodd" d="M51.1878 142.632C56.5957 140.096 61.8136 137.155 66.7852 133.843C60.1422 140.472 58.3752 150.465 57.5811 159.816C56.3112 174.78 56.6779 189.882 58.6744 204.766C58.9882 207.103 59.374 209.521 60.6832 211.481C63.8124 216.167 70.5566 216.309 76.1536 215.658C91.3979 213.884 107.49 209.305 117.098 197.337C117.986 196.23 118.835 195.007 119.022 193.6C119.152 192.618 118.946 191.625 118.731 190.658C115.213 174.802 108.851 159.444 108 143.226C108.812 148.702 110.926 153.981 114.12 158.504C114.468 158.998 114.915 159.53 115.519 159.548C116.093 159.566 116.557 159.112 116.946 158.689C119.352 156.072 121.693 153.394 123.966 150.66C125.151 149.239 126.353 147.722 126.721 145.909C127.247 143.311 125.962 140.719 124.646 138.418C118.92 128.408 111.595 118.95 101.674 113.068C100.454 112.344 99.1106 111.657 97.6944 111.762C95.7553 111.904 94.2695 113.452 92.6351 114.507C86.8796 118.219 78.9386 115.621 73.859 111.025C72.8321 110.096 71.8052 109.052 70.4622 108.71C69.4431 108.45 68.3678 108.631 67.3375 108.847C58.8285 110.635 50.4881 114.885 44.2546 120.991C36.6082 128.48 47.6705 135.335 51.1878 142.632Z" fill="#222222"/>
<path fill-rule="evenodd" clip-rule="evenodd" d="M68.3854 128.222C66.6442 134.622 63.7051 140.621 60.784 146.574C57.7269 152.805 54.5954 159.144 49.8016 164.162C48.8084 165.202 47.705 166.251 47.3338 167.64C46.9626 169.029 47.7342 170.835 49.1683 170.94C50.2819 171.024 51.1907 170.106 51.9184 169.258C59.0417 160.973 65.6083 152.063 69.9713 142.045C74.3355 132.026 76.3984 120.779 74.3186 110.052C74.1465 109.166 73.925 108.24 73.3176 107.571C72.3851 106.542 70.8408 106.41 69.4528 106.348C67.0345 106.24 63.2653 106.618 62.8717 109.533C66.2798 110.111 68.5012 109.898 69.6665 113.472C71.059 117.738 69.5192 124.057 68.3854 128.222Z" fill="#9BA3A7"/>
<path fill-rule="evenodd" clip-rule="evenodd" d="M102.486 110.924C103.721 112.341 103.976 114.337 104.191 116.205C106.051 132.443 108.831 148.577 112.515 164.501C113.86 151.6 112.279 138.591 110.699 125.715C110.309 122.537 109.91 119.321 108.746 116.34C107.582 113.357 105.552 110.585 102.666 109.197C101.681 108.724 100.557 108.418 99.4956 108.676C98.6295 108.888 97.9929 109.49 97.8568 110.22C99.3764 109.395 101.311 109.575 102.486 110.924Z" fill="#9BA3A7"/>
<path fill-rule="evenodd" clip-rule="evenodd" d="M77.6583 220.812C78.4006 222.825 81.7458 223.572 83.6129 224.135C86.9592 225.142 90.4021 225.107 93.8586 224.936C94.7832 224.89 94.7888 223.446 93.8586 223.492C91.2232 223.622 88.5811 223.724 85.9727 223.228C84.4543 222.939 83.0314 222.466 81.6074 221.853C81.2418 221.696 79.2566 220.986 79.0508 220.427C78.7324 219.562 77.3366 219.935 77.6583 220.812Z" fill="white"/>
<path fill-rule="evenodd" clip-rule="evenodd" d="M97.9163 231.401C95.0717 227.41 92.0247 223.489 88.8584 219.745L89.9607 218.811C93.1528 222.586 96.2246 226.54 99.0929 230.564L97.9163 231.401Z" fill="white"/>
<path fill-rule="evenodd" clip-rule="evenodd" d="M163.314 85.2978C163.314 85.2978 184.781 82.1927 192.444 65.1026L182.549 53.4673C182.549 53.4673 170.753 70.7173 156.346 69.9523L163.314 85.2978Z" fill="#5EDAD2"/>
<path fill-rule="evenodd" clip-rule="evenodd" d="M175.763 64.7642C178.615 65.1547 180.61 67.7832 180.22 70.6347C179.828 73.487 177.2 75.4822 174.348 75.0909C171.496 74.7004 169.502 72.0719 169.892 69.2204C170.283 66.3681 172.911 64.3729 175.763 64.7642Z" fill="#8CF5D4"/>
<path fill-rule="evenodd" clip-rule="evenodd" d="M167.059 80.481C167.91 80.5975 168.528 81.224 168.439 81.8794C168.349 82.5348 167.585 82.9718 166.734 82.8553C165.881 82.7381 165.263 82.1123 165.353 81.4569C165.442 80.8007 166.206 80.3646 167.059 80.481Z" fill="#8CF5D4"/>
<path fill-rule="evenodd" clip-rule="evenodd" d="M188.186 65.4775C188.679 64.7726 189.518 64.5092 190.06 64.889C190.602 65.2681 190.642 66.1473 190.148 66.8515C189.655 67.5564 188.816 67.8205 188.274 67.4407C187.732 67.0616 187.692 66.1824 188.186 65.4775Z" fill="#8CF5D4"/>
<path fill-rule="evenodd" clip-rule="evenodd" d="M181.366 56.3228C181.758 55.7633 182.425 55.5532 182.856 55.8546C183.286 56.1568 183.318 56.8549 182.926 57.4151C182.534 57.9754 181.867 58.1847 181.436 57.8833C181.005 57.5818 180.974 56.883 181.366 56.3228Z" fill="#8CF5D4"/>
<path fill-rule="evenodd" clip-rule="evenodd" d="M162.217 70.3541C162.899 70.4477 163.393 70.9486 163.321 71.4731C163.249 71.9975 162.638 72.3469 161.956 72.2541C161.274 72.1604 160.78 71.6596 160.852 71.1351C160.924 70.6106 161.535 70.2612 162.217 70.3541Z" fill="#8CF5D4"/>
<path fill-rule="evenodd" clip-rule="evenodd" d="M148.857 28.4428L150.227 24.9696C150.619 23.9738 152.028 23.9738 152.421 24.9696L153.79 28.4428C153.911 28.747 154.151 28.987 154.455 29.1066L157.928 30.4767C158.923 30.8688 158.923 32.2775 157.928 32.6706L154.455 34.0407C154.151 34.1603 153.911 34.4003 153.79 34.7046L152.421 38.1777C152.028 39.1735 150.619 39.1735 150.227 38.1777L148.857 34.7046C148.737 34.4003 148.496 34.1603 148.193 34.0407L144.72 32.6706C143.724 32.2775 143.724 30.8688 144.72 30.4767L148.193 29.1066C148.496 28.987 148.737 28.747 148.857 28.4428Z" fill="#FED0EF"/>
<path fill-rule="evenodd" clip-rule="evenodd" d="M264.198 14.4261C264.198 14.4261 242.755 11.1604 230.457 25.2864L236.545 39.2944C236.545 39.2944 252.843 26.2166 266.406 31.1341L264.198 14.4261Z" fill="#5EDAD2"/>
<path fill-rule="evenodd" clip-rule="evenodd" d="M246.434 29.3769C243.818 28.1741 242.673 25.079 243.875 22.4642C245.078 19.8487 248.173 18.7038 250.788 19.9057C253.404 21.1085 254.548 24.2036 253.346 26.8184C252.144 29.434 249.049 30.5788 246.434 29.3769Z" fill="#8CF5D4"/>
<path fill-rule="evenodd" clip-rule="evenodd" d="M259.623 17.9791C258.842 17.6198 258.432 16.841 258.708 16.2397C258.985 15.6383 259.843 15.4427 260.624 15.802C261.406 16.1613 261.816 16.94 261.539 17.5406C261.262 18.142 260.405 18.3384 259.623 17.9791Z" fill="#8CF5D4"/>
<path fill-rule="evenodd" clip-rule="evenodd" d="M235.673 26.2845C234.996 26.8151 234.116 26.8235 233.708 26.3036C233.299 25.7829 233.517 24.9303 234.194 24.399C234.87 23.8684 235.75 23.8601 236.158 24.38C236.567 24.9006 236.35 25.7532 235.673 26.2845Z" fill="#8CF5D4"/>
<path fill-rule="evenodd" clip-rule="evenodd" d="M239.034 36.4714C238.495 36.8939 237.796 36.9007 237.472 36.4866C237.147 36.0733 237.32 35.3958 237.858 34.9733C238.396 34.5516 239.094 34.5447 239.42 34.9588C239.744 35.3722 239.571 36.0497 239.034 36.4714Z" fill="#8CF5D4"/>
<path fill-rule="evenodd" clip-rule="evenodd" d="M261.707 28.1649C261.081 27.8772 260.754 27.2545 260.975 26.7734C261.196 26.2923 261.882 26.1355 262.508 26.4232C263.133 26.711 263.46 27.3336 263.239 27.8147C263.018 28.2958 262.332 28.4526 261.707 28.1649Z" fill="#8CF5D4"/>
<path fill-rule="evenodd" clip-rule="evenodd" d="M323.337 43.8871C323.051 43.1633 322.026 43.1633 321.741 43.8871L320.744 46.4142C320.657 46.6355 320.482 46.81 320.261 46.8979L317.734 47.8941C317.01 48.1798 317.01 49.2049 317.734 49.4895L320.261 50.4868C320.482 50.5735 320.657 50.7492 320.744 50.9704L321.741 53.4976C322.026 54.2214 323.051 54.2214 323.337 53.4976L324.334 50.9704C324.421 50.7492 324.595 50.5735 324.817 50.4868L327.344 49.4895C328.069 49.2049 328.069 48.1798 327.344 47.8941L324.817 46.8979C324.595 46.81 324.421 46.6355 324.334 46.4142L323.337 43.8871Z" fill="white"/>
<path fill-rule="evenodd" clip-rule="evenodd" d="M526.87 160.409C526.87 160.409 548.338 157.303 556 140.214L546.106 128.578C546.106 128.578 534.31 145.828 519.903 145.063L526.87 160.409Z" fill="#5EDAD2"/>
<path fill-rule="evenodd" clip-rule="evenodd" d="M540.286 140.807C543.138 141.198 545.133 143.826 544.743 146.678C544.351 149.529 541.723 151.525 538.871 151.134C536.02 150.743 534.025 148.115 534.415 145.263C534.806 142.411 537.434 140.416 540.286 140.807Z" fill="#8CF5D4"/>
<path fill-rule="evenodd" clip-rule="evenodd" d="M530.752 155.24C531.605 155.356 532.223 155.983 532.133 156.638C532.043 157.294 531.279 157.731 530.427 157.613C529.575 157.497 528.956 156.871 529.046 156.215C529.136 155.56 529.9 155.123 530.752 155.24Z" fill="#8CF5D4"/>
<path fill-rule="evenodd" clip-rule="evenodd" d="M551.459 139.998C551.952 139.293 552.791 139.03 553.333 139.409C553.875 139.789 553.915 140.667 553.422 141.372C552.929 142.077 552.089 142.34 551.547 141.961C551.005 141.581 550.965 140.703 551.459 139.998Z" fill="#8CF5D4"/>
<path fill-rule="evenodd" clip-rule="evenodd" d="M544.537 131.468C544.929 130.908 545.596 130.698 546.027 131C546.458 131.301 546.489 132 546.097 132.56C545.705 133.12 545.038 133.33 544.607 133.028C544.176 132.726 544.145 132.028 544.537 131.468Z" fill="#8CF5D4"/>
<path fill-rule="evenodd" clip-rule="evenodd" d="M525.842 146.101C526.524 146.195 527.018 146.696 526.946 147.22C526.875 147.745 526.264 148.094 525.582 148.001C524.9 147.908 524.406 147.407 524.477 146.882C524.549 146.358 525.16 146.008 525.842 146.101Z" fill="#8CF5D4"/>
<path fill-rule="evenodd" clip-rule="evenodd" d="M473.832 38.2421C473.832 38.2421 479.823 59.0897 497.795 64.3611L507.979 52.9793C507.979 52.9793 489.288 43.6338 488.09 29.2559L473.832 38.2421Z" fill="#5EDAD2"/>
<path fill-rule="evenodd" clip-rule="evenodd" d="M494.912 48.1692C494.912 51.0481 492.579 53.3813 489.701 53.3813C486.822 53.3813 484.489 51.0481 484.489 48.1692C484.489 45.291 486.822 42.9579 489.701 42.9579C492.579 42.9579 494.912 45.291 494.912 48.1692Z" fill="#8CF5D4"/>
<path fill-rule="evenodd" clip-rule="evenodd" d="M479.273 40.7092C479.273 41.5694 478.737 42.2667 478.075 42.2667C477.414 42.2667 476.877 41.5694 476.877 40.7092C476.877 39.849 477.414 39.1517 478.075 39.1517C478.737 39.1517 479.273 39.849 479.273 40.7092Z" fill="#8CF5D4"/>
<path fill-rule="evenodd" clip-rule="evenodd" d="M497.184 59.1593C497.949 59.5521 498.324 60.3483 498.022 60.9367C497.719 61.5251 496.854 61.6835 496.089 61.2907C495.324 60.8979 494.948 60.1017 495.251 59.5132C495.554 58.9248 496.419 58.7665 497.184 59.1593Z" fill="#8CF5D4"/>
<path fill-rule="evenodd" clip-rule="evenodd" d="M504.378 51.5028C504.986 51.8157 505.284 52.4482 505.044 52.9156C504.803 53.3838 504.115 53.5094 503.508 53.1973C502.9 52.8844 502.601 52.2518 502.842 51.7844C503.082 51.3163 503.77 51.1907 504.378 51.5028Z" fill="#8CF5D4"/>
<path fill-rule="evenodd" clip-rule="evenodd" d="M487.928 34.3081C487.928 34.9963 487.499 35.5543 486.97 35.5543C486.44 35.5543 486.012 34.9963 486.012 34.3081C486.012 33.62 486.44 33.062 486.97 33.062C487.499 33.062 487.928 33.62 487.928 34.3081Z" fill="#8CF5D4"/>
<path fill-rule="evenodd" clip-rule="evenodd" d="M465.846 10.5776L466.529 8.84737C466.724 8.35182 467.426 8.35182 467.622 8.84737L468.304 10.5776C468.364 10.7291 468.483 10.8494 468.635 10.9088L470.365 11.5908C470.861 11.7865 470.861 12.4883 470.365 12.6839L468.635 13.366C468.483 13.4261 468.364 13.5456 468.304 13.6971L467.622 15.4274C467.426 15.9229 466.724 15.9229 466.529 15.4274L465.846 13.6971C465.787 13.5456 465.667 13.4261 465.515 13.366L463.786 12.6839C463.289 12.4883 463.289 11.7865 463.786 11.5908L465.515 10.9088C465.667 10.8494 465.787 10.7291 465.846 10.5776Z" fill="#FED0EF"/>
<path fill-rule="evenodd" clip-rule="evenodd" d="M518.221 89.3375L517.165 86.6611C516.862 85.8945 515.776 85.8945 515.474 86.6611L514.418 89.3375C514.326 89.572 514.141 89.7577 513.907 89.8499L511.23 90.9057C510.463 91.2079 510.463 92.2934 511.23 92.5956L513.907 93.6514C514.141 93.7435 514.326 93.9292 514.418 94.1629L515.474 96.8394C515.776 97.6067 516.862 97.6067 517.165 96.8394L518.221 94.1629C518.313 93.9292 518.498 93.7435 518.732 93.6514L521.409 92.5956C522.176 92.2934 522.176 91.2079 521.409 90.9057L518.732 89.8499C518.498 89.7577 518.313 89.572 518.221 89.3375Z" fill="white"/>
<path fill-rule="evenodd" clip-rule="evenodd" d="M539.165 199.542L538.483 197.813C538.288 197.316 537.586 197.316 537.39 197.813L536.708 199.542C536.649 199.694 536.529 199.814 536.377 199.873L534.647 200.556C534.151 200.752 534.151 201.453 534.647 201.648L536.377 202.331C536.529 202.391 536.649 202.51 536.708 202.662L537.39 204.392C537.586 204.888 538.288 204.888 538.483 204.392L539.165 202.662C539.226 202.51 539.345 202.391 539.497 202.331L541.227 201.648C541.722 201.453 541.722 200.752 541.227 200.556L539.497 199.873C539.345 199.814 539.226 199.694 539.165 199.542Z" fill="white"/>
<path fill-rule="evenodd" clip-rule="evenodd" d="M20.2462 250.556C20.2462 250.556 33.7427 267.538 52.366 265.549L57.4327 251.14C57.4327 251.14 36.5896 249.639 29.9937 236.808L20.2462 250.556Z" fill="#5EDAD2"/>
<path fill-rule="evenodd" clip-rule="evenodd" d="M43.774 251.279C44.8732 253.94 43.6073 256.987 40.9468 258.086C38.2863 259.185 35.2391 257.92 34.1399 255.259C33.0407 252.599 34.3067 249.551 36.9671 248.452C39.6276 247.353 42.6755 248.619 43.774 251.279Z" fill="#8CF5D4"/>
<path fill-rule="evenodd" clip-rule="evenodd" d="M25.9854 250.234C26.3135 251.029 26.0844 251.878 25.4724 252.131C24.8611 252.384 24.0991 251.944 23.7703 251.149C23.4422 250.354 23.6713 249.504 24.2833 249.252C24.8946 248.999 25.6566 249.439 25.9854 250.234Z" fill="#8CF5D4"/>
<path fill-rule="evenodd" clip-rule="evenodd" d="M50.0204 260.436C50.8775 260.507 51.5284 261.099 51.4736 261.759C51.4188 262.418 50.6796 262.895 49.8225 262.824C48.9653 262.752 48.3145 262.16 48.3693 261.501C48.4241 260.842 49.1633 260.364 50.0204 260.436Z" fill="#8CF5D4"/>
<path fill-rule="evenodd" clip-rule="evenodd" d="M54.1802 250.311C54.8615 250.368 55.3784 250.839 55.335 251.362C55.2916 251.886 54.7039 252.265 54.0226 252.209C53.3413 252.153 52.8237 251.681 52.8679 251.158C52.9113 250.633 53.4989 250.254 54.1802 250.311Z" fill="#8CF5D4"/>
<path fill-rule="evenodd" clip-rule="evenodd" d="M32.2612 241.025C32.5238 241.661 32.3404 242.34 31.8509 242.543C31.3614 242.745 30.7517 242.393 30.4891 241.757C30.2264 241.121 30.4099 240.442 30.8994 240.239C31.3888 240.038 31.9986 240.389 32.2612 241.025Z" fill="#8CF5D4"/>
<path fill-rule="evenodd" clip-rule="evenodd" d="M4.52195 267.996L3.89135 266.396C3.71004 265.938 3.0612 265.938 2.88103 266.396L2.25043 267.996C2.19455 268.135 2.08394 268.247 1.94368 268.302L0.343807 268.933C-0.114602 269.114 -0.114602 269.763 0.343807 269.943L1.94368 270.575C2.08394 270.629 2.19455 270.74 2.25043 270.88L2.88103 272.48C3.0612 272.939 3.71004 272.939 3.89135 272.48L4.52195 270.88C4.57668 270.74 4.68844 270.629 4.82756 270.575L6.42743 269.943C6.88584 269.763 6.88584 269.114 6.42743 268.933L4.82756 268.302C4.68844 268.247 4.57668 268.135 4.52195 267.996Z" fill="#5EDAD2"/>
<path fill-rule="evenodd" clip-rule="evenodd" d="M181.48 233.311L182.536 230.635C182.838 229.867 183.924 229.867 184.227 230.635L185.282 233.311C185.375 233.545 185.56 233.731 185.794 233.823L188.471 234.879C189.238 235.181 189.238 236.266 188.471 236.569L185.794 237.624C185.56 237.717 185.375 237.902 185.282 238.137L184.227 240.813C183.924 241.58 182.838 241.58 182.536 240.813L181.48 238.137C181.388 237.902 181.203 237.717 180.969 237.624L178.292 236.569C177.525 236.266 177.525 235.181 178.292 234.879L180.969 233.823C181.203 233.731 181.388 233.545 181.48 233.311Z" fill="white"/>
<path fill-rule="evenodd" clip-rule="evenodd" d="M268.843 82.422L269.48 80.8091C269.662 80.3467 270.316 80.3467 270.498 80.8091L271.134 82.422C271.19 82.5629 271.302 82.6748 271.443 82.7303L273.056 83.3666C273.518 83.5487 273.518 84.2029 273.056 84.3855L271.443 85.0213C271.302 85.0772 271.19 85.1887 271.134 85.33L270.498 86.9429C270.316 87.4049 269.662 87.4049 269.48 86.9429L268.843 85.33C268.788 85.1887 268.676 85.0772 268.535 85.0213L266.922 84.3855C266.46 84.2029 266.46 83.5487 266.922 83.3666L268.535 82.7303C268.676 82.6748 268.788 82.5629 268.843 82.422Z" fill="white"/>
<path fill-rule="evenodd" clip-rule="evenodd" d="M354 159.075L352.945 156.398C352.642 155.632 351.557 155.632 351.255 156.398L350.199 159.075C350.107 159.309 349.921 159.494 349.687 159.587L347.011 160.642C346.243 160.945 346.243 162.03 347.011 162.333L349.687 163.388C349.921 163.48 350.107 163.666 350.199 163.9L351.255 166.576C351.557 167.344 352.642 167.344 352.945 166.576L354 163.9C354.093 163.666 354.278 163.48 354.513 163.388L357.189 162.333C357.956 162.03 357.956 160.945 357.189 160.642L354.513 159.587C354.278 159.494 354.093 159.309 354 159.075Z" fill="white"/>
<path fill-rule="evenodd" clip-rule="evenodd" d="M44.1309 31.8305C44.1309 31.8305 65.5981 28.7247 73.2606 11.6353L63.3662 0C63.3662 0 51.5703 17.2493 37.1635 16.485L44.1309 31.8305Z" fill="#5EDAD2"/>
<path fill-rule="evenodd" clip-rule="evenodd" d="M56.7856 12.2284C59.6371 12.6196 61.6323 15.2481 61.2418 18.0997C60.8505 20.9512 58.222 22.9464 55.3705 22.5559C52.5189 22.1654 50.5238 19.5369 50.9143 16.6846C51.3048 13.833 53.9333 11.8379 56.7856 12.2284Z" fill="#8CF5D4"/>
<path fill-rule="evenodd" clip-rule="evenodd" d="M47.2516 27.4229C48.1041 27.5394 48.7222 28.1659 48.6324 28.8213C48.5426 29.4767 47.7783 29.9137 46.9265 29.7964C46.0739 29.68 45.4558 29.0542 45.5457 28.3981C45.6355 27.7427 46.399 27.3057 47.2516 27.4229Z" fill="#8CF5D4"/>
<path fill-rule="evenodd" clip-rule="evenodd" d="M68.7192 12.1808C69.2125 11.4759 70.0513 11.2125 70.5941 11.5916C71.1361 11.9714 71.1757 12.8499 70.6824 13.5548C70.1891 14.2597 69.3495 14.5231 68.8075 14.144C68.2655 13.7641 68.2259 12.8857 68.7192 12.1808Z" fill="#8CF5D4"/>
<path fill-rule="evenodd" clip-rule="evenodd" d="M61.7972 3.65092C62.1892 3.09066 62.8561 2.88133 63.2869 3.18277C63.7178 3.48421 63.7497 4.18301 63.3577 4.74327C62.9649 5.30277 62.2981 5.51287 61.8672 5.21142C61.4364 4.90922 61.4052 4.21118 61.7972 3.65092Z" fill="#8CF5D4"/>
<path fill-rule="evenodd" clip-rule="evenodd" d="M42.3412 17.523C43.0233 17.6166 43.5173 18.1175 43.4458 18.642C43.3742 19.1665 42.7629 19.5159 42.0809 19.4223C41.3996 19.3294 40.9048 18.8277 40.9764 18.304C41.0487 17.7795 41.6592 17.4301 42.3412 17.523Z" fill="#8CF5D4"/>
<path fill-rule="evenodd" clip-rule="evenodd" d="M24.0097 74.7159L25.0655 72.0394C25.3677 71.2721 26.4532 71.2721 26.7562 72.0394L27.812 74.7159C27.9041 74.9496 28.0891 75.1353 28.3235 75.2274L31 76.2832C31.7673 76.5854 31.7673 77.6709 31 77.9739L28.3235 79.0289C28.0891 79.1218 27.9041 79.3068 27.812 79.5413L26.7562 82.2177C26.4532 82.9843 25.3677 82.9843 25.0655 82.2177L24.0097 79.5413C23.9176 79.3068 23.7326 79.1218 23.4982 79.0289L20.8217 77.9739C20.0544 77.6709 20.0544 76.5854 20.8217 76.2832L23.4982 75.2274C23.7326 75.1353 23.9176 74.9496 24.0097 74.7159Z" fill="#FED0EF"/>
<path fill-rule="evenodd" clip-rule="evenodd" d="M490.782 351.554L491.518 349.688C491.728 349.153 492.485 349.153 492.696 349.688L493.432 351.554C493.497 351.718 493.626 351.847 493.788 351.912L495.654 352.647C496.189 352.857 496.189 353.614 495.654 353.826L493.788 354.561C493.626 354.626 493.497 354.755 493.432 354.918L492.696 356.783C492.485 357.318 491.728 357.318 491.518 356.783L490.782 354.918C490.717 354.755 490.588 354.626 490.425 354.561L488.56 353.826C488.025 353.614 488.025 352.857 488.56 352.647L490.425 351.912C490.588 351.847 490.717 351.718 490.782 351.554Z" fill="#FED0EF"/>
<path fill-rule="evenodd" clip-rule="evenodd" d="M464.581 323.013C464.581 323.013 485.664 317.917 491.698 300.186L480.76 289.526C480.76 289.526 470.626 307.801 456.21 308.386L464.581 323.013Z" fill="#5EDAD2"/>
<path fill-rule="evenodd" clip-rule="evenodd" d="M475.346 302.471C478.222 302.594 480.454 305.025 480.332 307.901C480.208 310.777 477.778 313.008 474.902 312.885C472.026 312.763 469.794 310.332 469.917 307.456C470.04 304.58 472.47 302.349 475.346 302.471Z" fill="#8CF5D4"/>
<path fill-rule="evenodd" clip-rule="evenodd" d="M467.715 318.454C468.574 318.49 469.248 319.056 469.22 319.717C469.191 320.378 468.472 320.884 467.613 320.848C466.753 320.811 466.079 320.245 466.107 319.584C466.136 318.923 466.855 318.417 467.715 318.454Z" fill="#8CF5D4"/>
<path fill-rule="evenodd" clip-rule="evenodd" d="M486.913 301.068C487.338 300.321 488.15 299.98 488.724 300.307C489.3 300.634 489.421 301.505 488.995 302.253C488.571 303.001 487.759 303.341 487.185 303.015C486.609 302.687 486.488 301.816 486.913 301.068Z" fill="#8CF5D4"/>
<path fill-rule="evenodd" clip-rule="evenodd" d="M479.249 293.274C479.587 292.68 480.231 292.409 480.689 292.669C481.145 292.929 481.242 293.621 480.904 294.216C480.566 294.81 479.921 295.081 479.465 294.821C479.007 294.561 478.91 293.869 479.249 293.274Z" fill="#8CF5D4"/>
<path fill-rule="evenodd" clip-rule="evenodd" d="M461.303 309.319C461.991 309.348 462.53 309.801 462.507 310.33C462.484 310.859 461.909 311.264 461.221 311.234C460.534 311.205 459.995 310.752 460.017 310.223C460.04 309.694 460.615 309.289 461.303 309.319Z" fill="#8CF5D4"/>
<path fill-rule="evenodd" clip-rule="evenodd" d="M332.629 372.785L331.574 370.108C331.271 369.342 330.186 369.342 329.884 370.108L328.828 372.785C328.736 373.019 328.55 373.204 328.316 373.297L325.64 374.352C324.873 374.655 324.873 375.741 325.64 376.043L328.316 377.099C328.55 377.191 328.736 377.376 328.828 377.61L329.884 380.287C330.186 381.054 331.271 381.054 331.574 380.287L332.629 377.61C332.722 377.376 332.907 377.191 333.142 377.099L335.818 376.043C336.585 375.741 336.585 374.655 335.818 374.352L333.142 373.297C332.907 373.204 332.722 373.019 332.629 372.785Z" fill="#5EDAD2"/>
<path fill-rule="evenodd" clip-rule="evenodd" d="M132.216 330.923L130.875 327.522C130.491 326.548 129.111 326.548 128.727 327.522L127.385 330.923C127.268 331.221 127.032 331.457 126.735 331.574L123.333 332.915C122.358 333.3 122.358 334.68 123.333 335.064L126.735 336.406C127.032 336.523 127.268 336.758 127.385 337.056L128.727 340.457C129.111 341.432 130.491 341.432 130.875 340.457L132.216 337.056C132.334 336.758 132.569 336.523 132.867 336.406L136.268 335.064C137.243 334.68 137.243 333.3 136.268 332.915L132.867 331.574C132.569 331.457 132.334 331.221 132.216 330.923Z" fill="#5EDAD2"/>
<path fill-rule="evenodd" clip-rule="evenodd" d="M82.7178 385.226L82.0052 383.419C81.8012 382.902 81.068 382.902 80.864 383.419L80.1515 385.226C80.0888 385.384 79.964 385.51 79.8057 385.572L77.9988 386.284C77.4809 386.489 77.4809 387.222 77.9988 387.426L79.8057 388.138C79.964 388.201 80.0888 388.326 80.1515 388.484L80.864 390.291C81.068 390.809 81.8012 390.809 82.0052 390.291L82.7178 388.484C82.7804 388.326 82.9053 388.201 83.0636 388.138L84.8705 387.426C85.3884 387.222 85.3884 386.489 84.8705 386.284L83.0636 385.572C82.9053 385.51 82.7804 385.384 82.7178 385.226Z" fill="#5EDAD2"/>
<path fill-rule="evenodd" clip-rule="evenodd" d="M393.209 393.833C393.209 393.833 371.765 390.566 359.467 404.693L365.555 418.701C365.555 418.701 381.854 405.623 395.417 410.54L393.209 393.833Z" fill="#5EDAD2"/>
<path fill-rule="evenodd" clip-rule="evenodd" d="M375.443 408.783C372.828 407.581 371.683 404.486 372.886 401.87C374.088 399.255 377.183 398.11 379.798 399.313C382.413 400.515 383.559 403.61 382.356 406.225C381.153 408.84 378.059 409.986 375.443 408.783Z" fill="#8CF5D4"/>
<path fill-rule="evenodd" clip-rule="evenodd" d="M388.633 397.385C387.851 397.026 387.442 396.247 387.719 395.646C387.995 395.045 388.852 394.849 389.634 395.208C390.416 395.568 390.825 396.346 390.549 396.948C390.273 397.549 389.415 397.745 388.633 397.385Z" fill="#8CF5D4"/>
<path fill-rule="evenodd" clip-rule="evenodd" d="M364.683 406.452C364.006 406.983 363.127 406.992 362.718 406.471C362.309 405.95 362.527 405.098 363.204 404.567C363.88 404.036 364.76 404.027 365.169 404.548C365.577 405.069 365.359 405.921 364.683 406.452Z" fill="#8CF5D4"/>
<path fill-rule="evenodd" clip-rule="evenodd" d="M368.043 415.878C367.505 416.3 366.807 416.307 366.481 415.893C366.157 415.479 366.33 414.802 366.867 414.38C367.406 413.958 368.105 413.952 368.429 414.365C368.754 414.779 368.581 415.456 368.043 415.878Z" fill="#8CF5D4"/>
<path fill-rule="evenodd" clip-rule="evenodd" d="M390.717 408.333C390.091 408.045 389.764 407.422 389.985 406.941C390.206 406.46 390.892 406.303 391.517 406.591C392.142 406.878 392.47 407.501 392.249 407.982C392.028 408.463 391.342 408.62 390.717 408.333Z" fill="#8CF5D4"/>
<path fill-rule="evenodd" clip-rule="evenodd" d="M148.5 415.977C148.5 415.977 169.584 421.071 183.049 408.053L178.187 393.574C178.187 393.574 160.825 405.205 147.734 399.141L148.5 415.977Z" fill="#5EDAD2"/>
<path fill-rule="evenodd" clip-rule="evenodd" d="M167.702 402.63C170.204 404.052 171.079 407.234 169.657 409.736C168.234 412.239 165.053 413.114 162.55 411.692C160.048 410.269 159.173 407.087 160.595 404.585C162.018 402.082 165.199 401.207 167.702 402.63Z" fill="#8CF5D4"/>
<path fill-rule="evenodd" clip-rule="evenodd" d="M153.61 412.097C154.358 412.522 154.699 413.333 154.372 413.909C154.045 414.483 153.174 414.605 152.426 414.18C151.678 413.755 151.337 412.944 151.664 412.369C151.991 411.794 152.862 411.672 153.61 412.097Z" fill="#8CF5D4"/>
<path fill-rule="evenodd" clip-rule="evenodd" d="M178.225 406.068C178.945 405.596 179.822 405.663 180.184 406.218C180.546 406.771 180.256 407.601 179.537 408.073C178.817 408.544 177.94 408.477 177.577 407.923C177.215 407.369 177.505 406.538 178.225 406.068Z" fill="#8CF5D4"/>
<path fill-rule="evenodd" clip-rule="evenodd" d="M175.776 396.107C176.348 395.733 177.045 395.786 177.334 396.226C177.622 396.666 177.391 397.327 176.819 397.701C176.247 398.075 175.55 398.022 175.262 397.582C174.974 397.142 175.204 396.481 175.776 396.107Z" fill="#8CF5D4"/>
<path fill-rule="evenodd" clip-rule="evenodd" d="M152.435 401.389C153.033 401.73 153.306 402.378 153.045 402.839C152.783 403.299 152.085 403.396 151.487 403.056C150.89 402.716 150.616 402.067 150.878 401.607C151.139 401.147 151.837 401.049 152.435 401.389Z" fill="#8CF5D4"/>
<path fill-rule="evenodd" clip-rule="evenodd" d="M151.286 351.565L152.39 348.764C152.707 347.962 153.843 347.962 154.159 348.764L155.264 351.565C155.361 351.81 155.555 352.004 155.8 352.1L158.6 353.205C159.403 353.522 159.403 354.657 158.6 354.974L155.8 356.079C155.555 356.175 155.361 356.369 155.264 356.614L154.159 359.415C153.843 360.217 152.707 360.217 152.39 359.415L151.286 356.614C151.189 356.369 150.995 356.175 150.75 356.079L147.949 354.974C147.147 354.657 147.147 353.522 147.949 353.205L150.75 352.1C150.995 352.004 151.189 351.81 151.286 351.565Z" fill="#FED0EF"/>
</svg>
